<svg id="Layer_1" data-name="Layer 1" xmlns="http://www.w3.org/2000/svg" viewBox="0 0 440.29 109.98">
  <defs>
    <style>.cls-1{fill:#262524;}.cls-2{fill:#28201d;}.cls-3{fill:#af7239;}.cls-4{fill:#4d3029;}.cls-5{fill:#d1a76b;}</style>
  </defs>
  <title>4sq</title>
  <path class="cls-1" d="M27.64,113.45l2.11-.19c1.08-.13,1.85-.51,1.85-1.79V81.74L28,81.55V76.11H58.84V86.72l-6.52.45V84.61c0-1.21-.13-2-1.86-2H39.4V94H55.13v6.52H39.4V113l5.69.19v5.44H27.64Z" transform="translate(-27.64 -29.57)"/>
  <path class="cls-1" d="M73.81,85.51c4.73,0,14.26,1.47,14.26,16.18,0,12.27-6.84,17.9-15.28,17.9s-14.2-5.5-14.2-17.07C58.59,89.22,67.23,85.51,73.81,85.51Zm6.46,17.2c0-7.16-1.73-11.57-6.84-11.57s-7.1,4.34-7.1,10.48c0,5.95.83,12.34,7,12.34C78.29,114,80.27,109.36,80.27,102.71Z" transform="translate(-27.64 -29.57)"/>
  <path class="cls-1" d="M123.25,118.63H112.9v-4.16a12.47,12.47,0,0,1-10.36,5c-6.4,0-9.91-3.52-9.91-11.06V93.63c0-1.34-.51-1.73-1.6-1.79l-2-.13V86.47h11.26v20.27c0,3.9.64,6.84,4.73,6.84,4.47,0,6.84-3,6.84-6.33V93.76c0-1.41-.39-1.86-1.6-1.92l-2-.13V86.47h11.26v25.06c0,1.41.38,1.73,1.59,1.86l2.24.19Z" transform="translate(-27.64 -29.57)"/>
  <path class="cls-1" d="M130,93.76c0-1.41-.39-1.86-1.6-1.92l-2.69-.19V86.47H136.5v4.79a10,10,0,0,1,9.08-5.75,13.36,13.36,0,0,1,6.14,1.41v9.52l-5.95.45V94c0-.77-.13-1.34-.64-1.6A3.74,3.74,0,0,0,143.4,92c-3.45,0-5.81,2.75-5.81,6.46v14.83l5.56.26v5H126v-4.86l2.11-.19c1.22-.13,1.86-.51,1.86-2.11Z" transform="translate(-27.64 -29.57)"/>
  <path class="cls-1" d="M266,106.74c0-4-3.64-5.18-8.12-6.4-6.33-1.72-12.21-4.28-12.21-12.46,0-7.81,6-12.54,14.83-12.54a27.75,27.75,0,0,1,12,2.63v9.59L266,88V84.29c0-1.21-.19-1.72-1.34-2.1a14.93,14.93,0,0,0-4.16-.52c-3.77,0-6.71,1.54-6.71,5.5s3.71,5,8.5,6.52c5.82,1.86,12,4.48,12,12.73,0,8.44-6.65,13-15.47,13a29.14,29.14,0,0,1-12.92-2.62v-10.1l6.52-.45v3.9c0,1.21.2,1.73,1.35,2.11a16.23,16.23,0,0,0,4.6.57C262.5,112.87,266,111.53,266,106.74Z" transform="translate(-27.64 -29.57)"/>
  <path class="cls-1" d="M297.68,115.88a10.89,10.89,0,0,1-8.5,3.58c-9.34,0-12.4-8.31-12.4-15.54,0-13,6.84-18.41,16.49-18.41a34,34,0,0,1,11.83,2.37v38.68l3.71.19v5.11H292V127l3.77-.19c1.22-.06,1.92-.51,1.92-2.11Zm-.06-24a15.83,15.83,0,0,0-5.05-.77c-5.31,0-7.93,5.12-7.93,11.83,0,4.54.58,10.93,6.71,10.93,3.58,0,6.27-1.85,6.27-5.69Z" transform="translate(-27.64 -29.57)"/>
  <path class="cls-1" d="M343,118.63H332.67v-4.16a12.47,12.47,0,0,1-10.36,5c-6.39,0-9.91-3.52-9.91-11.06V93.63c0-1.34-.51-1.73-1.6-1.79l-2-.13V86.47H320v20.27c0,3.9.64,6.84,4.73,6.84,4.48,0,6.84-3,6.84-6.33V93.76c0-1.41-.38-1.86-1.6-1.92l-2-.13V86.47h11.25v25.06c0,1.41.38,1.73,1.6,1.86l2.24.19Z" transform="translate(-27.64 -29.57)"/>
  <path class="cls-1" d="M358.25,113.32l3.64.19v5.12H346.67v-4.86l2.11-.19c1.15-.13,1.86-.51,1.86-2V93.76c0-1.41-.39-1.86-1.6-1.86l-2.24-.12V86.47h11.45Zm-4.48-40.53a4.73,4.73,0,0,1,4.86,4.79,4.64,4.64,0,0,1-4.92,4.67,4.55,4.55,0,0,1-4.86-4.67A4.67,4.67,0,0,1,353.77,72.79Z" transform="translate(-27.64 -29.57)"/>
  <path class="cls-1" d="M369.31,93.76c0-1.41-.38-1.86-1.6-1.92L365,91.65V86.47h10.8v4.79a10,10,0,0,1,9.08-5.75,13.36,13.36,0,0,1,6.14,1.41v9.52l-5.95.45V94c0-.77-.12-1.34-.63-1.6a3.77,3.77,0,0,0-1.73-.32c-3.45,0-5.82,2.75-5.82,6.46v14.83l5.56.26v5H365.35v-4.86l2.11-.19c1.21-.13,1.85-.51,1.85-2.11Z" transform="translate(-27.64 -29.57)"/>
  <path class="cls-1" d="M399.49,93.76c0-1.41-.39-1.86-1.6-1.92l-2.69-.19V86.47H406v4.79a10,10,0,0,1,9.08-5.75,13.36,13.36,0,0,1,6.14,1.41v9.52l-6,.45V94c0-.77-.13-1.34-.64-1.6a3.74,3.74,0,0,0-1.73-.32c-3.45,0-5.81,2.75-5.81,6.46v14.83l5.56.26v5H395.52v-4.86l2.11-.19c1.22-.13,1.86-.51,1.86-2.11Z" transform="translate(-27.64 -29.57)"/>
  <path class="cls-1" d="M449.5,94.4c0,9.84-10.67,11.51-18.22,11.57.26,4.16,2.43,7.54,7.87,7.54a13.73,13.73,0,0,0,8.05-2.81l2.43,5.18a18.6,18.6,0,0,1-11.25,3.58c-10.87,0-15.09-6.65-15.09-16.18s5.31-17.77,15.79-17.77C445.35,85.51,449.5,88.71,449.5,94.4Zm-10.87-3.46c-5.11,0-7.41,4.93-7.6,9.66,4.73-.07,11.44-1.15,11.44-6.08C442.47,92.16,440.94,90.94,438.63,90.94Z" transform="translate(-27.64 -29.57)"/>
  <path class="cls-1" d="M464.29,113.32l3.64.19v5.12H452.71v-4.86l2.11-.19c1.15-.13,1.86-.51,1.86-2V80c0-1.15-.64-1.47-1.6-1.53l-2.24-.13V73h11.45Z" transform="translate(-27.64 -29.57)"/>
  <path class="cls-2" d="M198.78,139.56l-1.72-.61c-25.76-9-33.76-42.52-33.76-53.69V84.5a7.12,7.12,0,0,1-3.57-1.88A5.76,5.76,0,0,1,158,78.49c0-20.47,17-37.26,38.45-38.43-1.13-3.22-1.19-8.05,0-10.41a9.63,9.63,0,0,1,5.43,1.19c-1.91,2.45-2,7.8-1.63,9.18,21.49.7,39.39,17.37,39.39,37,0,3.65-2.7,5.36-5.46,6.21-1.3,15.77-9.84,47.82-33.66,55.73Z" transform="translate(-27.64 -29.57)"/>
  <path class="cls-3" d="M168.65,86c.37,8.89,6.77,39.67,30.18,47.9,21.16-7,28.77-36.7,30-50.84C228.85,82.86,191,83.48,168.65,86Z" transform="translate(-27.64 -29.57)"/>
  <path class="cls-4" d="M212.72,47.93a78.22,78.22,0,0,0-13.2,13.59,88.48,88.48,0,0,1,8.22,16.81,98.42,98.42,0,0,1,14.54-12.54,87,87,0,0,0-7.76-17.1C213.93,48.42,213.33,48.17,212.72,47.93Z" transform="translate(-27.64 -29.57)"/>
  <path class="cls-4" d="M185.88,79.8h.37a90.16,90.16,0,0,1,9.14-18,77.55,77.55,0,0,0-12.46-13A34.64,34.64,0,0,0,168.8,60.68,72.54,72.54,0,0,1,185.88,79.8Z" transform="translate(-27.64 -29.57)"/>
  <path class="cls-4" d="M166.4,64.85a31.55,31.55,0,0,0-3.1,13.64c0,1.6,9.34,1.54,20.22,1.35A76.42,76.42,0,0,0,166.4,64.85Z" transform="translate(-27.64 -29.57)"/>
  <path class="cls-4" d="M188.46,79.75c3.47-.06,7-.12,10.29-.12h7.46a103.42,103.42,0,0,0-8.83-15.19A108.12,108.12,0,0,0,188.46,79.75Z" transform="translate(-27.64 -29.57)"/>
  <path class="cls-4" d="M227.62,79c4.07-.39,6.68-1,6.68-1.92a28.16,28.16,0,0,0-3.07-12.67c-1.85.93-3.72,1.94-5.59,3A75.7,75.7,0,0,1,227.62,79Z" transform="translate(-27.64 -29.57)"/>
  <path class="cls-4" d="M229.42,61.23a34.38,34.38,0,0,0-9.53-9.55,81.54,81.54,0,0,1,4.85,12.44Q227.1,62.58,229.42,61.23Z" transform="translate(-27.64 -29.57)"/>
  <path class="cls-4" d="M209.05,79.61c6,0,12-.16,16.57-.49a91.59,91.59,0,0,0-2.38-10.26A100.09,100.09,0,0,0,209.05,79.61Z" transform="translate(-27.64 -29.57)"/>
  <path class="cls-4" d="M197.58,58.58a77,77,0,0,1,10.77-12,38.21,38.21,0,0,0-20.58.42A77,77,0,0,1,197.58,58.58Z" transform="translate(-27.64 -29.57)"/>
  <path class="cls-5" d="M176.55,94.54c-.3-2.18.55-4.81,2.8-4.81s3.64,1.72,3.64,4-.05,5.78-2.3,5.78S176.85,96.77,176.55,94.54Z" transform="translate(-27.64 -29.57)"/>
</svg>