<svg id="Layer_1" data-name="Layer 1" xmlns="http://www.w3.org/2000/svg" viewBox="0 0 440.29 109.98">
  <defs>
    <style>.cls-2{fill:#28201d;}.cls-3{fill:#af7239;}.cls-4{fill:#4d3029;}.cls-5{fill:#d1a76b;}</style>
  </defs>
  <title>4sqAcorn</title>
  <path class="cls-2" d="M198.78,139.56l-1.72-.61c-25.76-9-33.76-42.52-33.76-53.69V84.5a7.12,7.12,0,0,1-3.57-1.88A5.76,5.76,0,0,1,158,78.49c0-20.47,17-37.26,38.45-38.43-1.13-3.22-1.19-8.05,0-10.41a9.63,9.63,0,0,1,5.43,1.19c-1.91,2.45-2,7.8-1.63,9.18,21.49.7,39.39,17.37,39.39,37,0,3.65-2.7,5.36-5.46,6.21-1.3,15.77-9.84,47.82-33.66,55.73Z" transform="translate(-27.64 -29.57)"/>
  <path class="cls-3" d="M168.65,86c.37,8.89,6.77,39.67,30.18,47.9,21.16-7,28.77-36.7,30-50.84C228.85,82.86,191,83.48,168.65,86Z" transform="translate(-27.64 -29.57)"/>
  <path class="cls-4" d="M212.72,47.93a78.22,78.22,0,0,0-13.2,13.59,88.48,88.48,0,0,1,8.22,16.81,98.42,98.42,0,0,1,14.54-12.54,87,87,0,0,0-7.76-17.1C213.93,48.42,213.33,48.17,212.72,47.93Z" transform="translate(-27.64 -29.57)"/>
  <path class="cls-4" d="M185.88,79.8h.37a90.16,90.16,0,0,1,9.14-18,77.55,77.55,0,0,0-12.46-13A34.64,34.64,0,0,0,168.8,60.68,72.54,72.54,0,0,1,185.88,79.8Z" transform="translate(-27.64 -29.57)"/>
  <path class="cls-4" d="M166.4,64.85a31.55,31.55,0,0,0-3.1,13.64c0,1.6,9.34,1.54,20.22,1.35A76.42,76.42,0,0,0,166.4,64.85Z" transform="translate(-27.64 -29.57)"/>
  <path class="cls-4" d="M188.46,79.75c3.47-.06,7-.12,10.29-.12h7.46a103.42,103.42,0,0,0-8.83-15.19A108.12,108.12,0,0,0,188.46,79.75Z" transform="translate(-27.64 -29.57)"/>
  <path class="cls-4" d="M227.62,79c4.07-.39,6.68-1,6.68-1.92a28.16,28.16,0,0,0-3.07-12.67c-1.85.93-3.72,1.94-5.59,3A75.7,75.7,0,0,1,227.62,79Z" transform="translate(-27.64 -29.57)"/>
  <path class="cls-4" d="M229.42,61.23a34.38,34.38,0,0,0-9.53-9.55,81.54,81.54,0,0,1,4.85,12.44Q227.1,62.58,229.42,61.23Z" transform="translate(-27.64 -29.57)"/>
  <path class="cls-4" d="M209.05,79.61c6,0,12-.16,16.57-.49a91.59,91.59,0,0,0-2.38-10.26A100.09,100.09,0,0,0,209.05,79.61Z" transform="translate(-27.64 -29.57)"/>
  <path class="cls-4" d="M197.58,58.58a77,77,0,0,1,10.77-12,38.21,38.21,0,0,0-20.58.42A77,77,0,0,1,197.58,58.58Z" transform="translate(-27.64 -29.57)"/>
  <path class="cls-5" d="M176.55,94.54c-.3-2.18.55-4.81,2.8-4.81s3.64,1.72,3.64,4-.05,5.78-2.3,5.78S176.85,96.77,176.55,94.54Z" transform="translate(-27.64 -29.57)"/>
</svg>